<mxfile host="app.diagrams.net" modified="2024-02-05T05:06:46.390Z" agent="Mozilla/5.0 (Macintosh; Intel Mac OS X 10_15_7) AppleWebKit/537.36 (KHTML, like Gecko) Chrome/120.0.0.0 Safari/537.36" version="23.1.1" etag="lXywbt9XATDGGqR9A0vo" type="github">
  <diagram name="Page-1" id="-f9gX8XP2iuh9PClfc1n">
    <mxGraphModel>
      <root>
        <mxCell id="0" />
        <mxCell id="1" parent="0" />
      </root>
    </mxGraphModel>
  </diagram>
</mxfile>
